<svg xmlns="http://www.w3.org/2000/svg" width="24" height="24" viewBox="0 0 24 24" fill="none" stroke="currentColor" stroke-width="2" stroke-linecap="round" stroke-linejoin="round"><circle cx="13.5" cy="6.5" r="2"/><circle cx="17.5" cy="10.5" r="2"/><circle cx="8.5" cy="7.5" r="2"/><circle cx="6.5" cy="12.5" r="2"/><path d="M12 2C6.49 2 2 6.49 2 12s4.49 10 10 10c1.38 0 2.5-1.12 2.5-2.5 0-.61-.23-1.2-.64-1.67a1.76 1.76 0 01-.36-1.08c0-.97.78-1.75 1.75-1.75H17c2.76 0 5-2.24 5-5 0-4.42-4.03-8-10-8z"/></svg>
