<svg xmlns="http://www.w3.org/2000/svg" viewBox="0 0 128 128" width="128" height="128">
  <defs>
    <linearGradient id="bg" x1="0" y1="0" x2="1" y2="1">
      <stop offset="0%" stop-color="#1a1a2e"/>
      <stop offset="100%" stop-color="#0f0f1a"/>
    </linearGradient>
    <linearGradient id="sparkle" x1="0" y1="0" x2="1" y2="1">
      <stop offset="0%" stop-color="#818cf8"/>
      <stop offset="100%" stop-color="#4f46e5"/>
    </linearGradient>
  </defs>
  <rect width="128" height="128" rx="28" fill="url(#bg)"/>
  <path d="M64 24l6.5 19.8a10 10 0 006.7 6.7L97 57l-19.8 6.5a10 10 0 00-6.7 6.7L64 90l-6.5-19.8a10 10 0 00-6.7-6.7L31 57l19.8-6.5a10 10 0 006.7-6.7L64 24z" fill="url(#sparkle)"/>
  <path d="M90 72l3 9.2a5 5 0 003.3 3.3L105.5 87.5l-9.2 3a5 5 0 00-3.3 3.3L90 103l-3-9.2a5 5 0 00-3.3-3.3L74.5 87.5l9.2-3a5 5 0 003.3-3.3L90 72z" fill="#a5b4fc" opacity="0.7"/>
</svg>
